<mxfile host="app.diagrams.net" agent="Mozilla/5.0 (X11; Ubuntu; Linux x86_64; rv:134.0) Gecko/20100101 Firefox/134.0" version="26.0.6">
  <diagram name="Page-1" id="Rp2cu49VDhI86DX-alM2">
    <mxGraphModel dx="525" dy="335" grid="1" gridSize="10" guides="1" tooltips="1" connect="1" arrows="1" fold="1" page="1" pageScale="1" pageWidth="827" pageHeight="1169" math="0" shadow="0">
      <root>
        <mxCell id="0" />
        <mxCell id="1" parent="0" />
        <mxCell id="sDMSiTrskQ5_PpkyUzul-7" value="Pc Hôte" style="rounded=1;whiteSpace=wrap;html=1;" parent="1" vertex="1">
          <mxGeometry x="100" y="380" width="120" height="60" as="geometry" />
        </mxCell>
        <mxCell id="sDMSiTrskQ5_PpkyUzul-8" value="Port 80" style="text;html=1;align=center;verticalAlign=middle;whiteSpace=wrap;rounded=0;" parent="1" vertex="1">
          <mxGeometry x="160" y="440" width="60" height="30" as="geometry" />
        </mxCell>
        <mxCell id="sDMSiTrskQ5_PpkyUzul-10" value="" style="endArrow=none;html=1;rounded=0;exitX=0.5;exitY=0;exitDx=0;exitDy=0;entryX=0.5;entryY=1;entryDx=0;entryDy=0;" parent="1" source="sDMSiTrskQ5_PpkyUzul-9" target="sDMSiTrskQ5_PpkyUzul-7" edge="1">
          <mxGeometry width="50" height="50" relative="1" as="geometry">
            <mxPoint x="260" y="490" as="sourcePoint" />
            <mxPoint x="310" y="440" as="targetPoint" />
          </mxGeometry>
        </mxCell>
        <mxCell id="sDMSiTrskQ5_PpkyUzul-9" value="Nginx" style="rounded=1;whiteSpace=wrap;html=1;" parent="1" vertex="1">
          <mxGeometry x="100" y="550" width="120" height="60" as="geometry" />
        </mxCell>
        <mxCell id="sDMSiTrskQ5_PpkyUzul-13" value="127.0.0.1" style="text;html=1;align=center;verticalAlign=middle;whiteSpace=wrap;rounded=0;" parent="1" vertex="1">
          <mxGeometry x="90" y="440" width="60" height="30" as="geometry" />
        </mxCell>
        <mxCell id="EwCv4uI29tu3RD-SYvPV-1" value="mongodb" style="rounded=1;whiteSpace=wrap;html=1;" parent="1" vertex="1">
          <mxGeometry x="180" y="800" width="120" height="60" as="geometry" />
        </mxCell>
        <mxCell id="v6AuKC3yWM7Gicxnks6a-1" value="Flask no DB" style="rounded=1;whiteSpace=wrap;html=1;" parent="1" vertex="1">
          <mxGeometry x="20" y="680" width="120" height="60" as="geometry" />
        </mxCell>
        <mxCell id="v6AuKC3yWM7Gicxnks6a-2" value="Flask with DB" style="rounded=1;whiteSpace=wrap;html=1;" parent="1" vertex="1">
          <mxGeometry x="180" y="680" width="120" height="60" as="geometry" />
        </mxCell>
        <mxCell id="v6AuKC3yWM7Gicxnks6a-3" value="" style="endArrow=none;html=1;rounded=0;entryX=0.829;entryY=1.039;entryDx=0;entryDy=0;entryPerimeter=0;exitX=0.165;exitY=0.006;exitDx=0;exitDy=0;exitPerimeter=0;" parent="1" source="v6AuKC3yWM7Gicxnks6a-2" target="sDMSiTrskQ5_PpkyUzul-9" edge="1">
          <mxGeometry width="50" height="50" relative="1" as="geometry">
            <mxPoint x="190" y="710" as="sourcePoint" />
            <mxPoint x="240" y="660" as="targetPoint" />
          </mxGeometry>
        </mxCell>
        <mxCell id="v6AuKC3yWM7Gicxnks6a-4" value="" style="endArrow=none;html=1;rounded=0;entryX=0.817;entryY=1.053;entryDx=0;entryDy=0;entryPerimeter=0;exitX=0.835;exitY=-0.006;exitDx=0;exitDy=0;exitPerimeter=0;" parent="1" source="v6AuKC3yWM7Gicxnks6a-1" edge="1">
          <mxGeometry width="50" height="50" relative="1" as="geometry">
            <mxPoint x="120" y="674" as="sourcePoint" />
            <mxPoint x="119.5" y="610" as="targetPoint" />
          </mxGeometry>
        </mxCell>
        <mxCell id="v6AuKC3yWM7Gicxnks6a-5" value="&lt;div&gt;Port 5000&lt;/div&gt;&lt;div&gt;172.19.0.4&lt;/div&gt;&lt;div&gt;&lt;br&gt;&lt;/div&gt;" style="text;html=1;align=center;verticalAlign=middle;whiteSpace=wrap;rounded=0;" parent="1" vertex="1">
          <mxGeometry x="210" y="660" width="60" height="20" as="geometry" />
        </mxCell>
        <mxCell id="v6AuKC3yWM7Gicxnks6a-6" value="&lt;div&gt;Port 5000&lt;/div&gt;&lt;div&gt;172.19.0.3&lt;/div&gt;" style="text;html=1;align=center;verticalAlign=middle;whiteSpace=wrap;rounded=0;" parent="1" vertex="1">
          <mxGeometry x="60" y="650" width="60" height="30" as="geometry" />
        </mxCell>
        <mxCell id="v6AuKC3yWM7Gicxnks6a-7" value="Port 80" style="text;html=1;align=center;verticalAlign=middle;whiteSpace=wrap;rounded=0;" parent="1" vertex="1">
          <mxGeometry x="130" y="600" width="60" height="30" as="geometry" />
        </mxCell>
        <mxCell id="v6AuKC3yWM7Gicxnks6a-8" value="" style="endArrow=none;html=1;rounded=0;entryX=0.5;entryY=1;entryDx=0;entryDy=0;exitX=0.5;exitY=0;exitDx=0;exitDy=0;" parent="1" source="EwCv4uI29tu3RD-SYvPV-1" target="v6AuKC3yWM7Gicxnks6a-2" edge="1">
          <mxGeometry width="50" height="50" relative="1" as="geometry">
            <mxPoint x="200" y="800" as="sourcePoint" />
            <mxPoint x="250" y="750" as="targetPoint" />
          </mxGeometry>
        </mxCell>
        <mxCell id="v6AuKC3yWM7Gicxnks6a-9" value="27017" style="text;html=1;align=center;verticalAlign=middle;whiteSpace=wrap;rounded=0;" parent="1" vertex="1">
          <mxGeometry x="190" y="730" width="60" height="30" as="geometry" />
        </mxCell>
        <mxCell id="v6AuKC3yWM7Gicxnks6a-10" value="27017" style="text;html=1;align=center;verticalAlign=middle;whiteSpace=wrap;rounded=0;" parent="1" vertex="1">
          <mxGeometry x="190" y="780" width="60" height="20" as="geometry" />
        </mxCell>
        <mxCell id="x_83xfT4ExtWYaYdCdeu-1" value="" style="endArrow=none;html=1;rounded=0;entryX=1.013;entryY=0.647;entryDx=0;entryDy=0;entryPerimeter=0;exitX=0.852;exitY=0.031;exitDx=0;exitDy=0;exitPerimeter=0;" edge="1" parent="1" source="v6AuKC3yWM7Gicxnks6a-2" target="sDMSiTrskQ5_PpkyUzul-7">
          <mxGeometry width="50" height="50" relative="1" as="geometry">
            <mxPoint x="280" y="670" as="sourcePoint" />
            <mxPoint x="300" y="420" as="targetPoint" />
            <Array as="points">
              <mxPoint x="280" y="419" />
            </Array>
          </mxGeometry>
        </mxCell>
        <mxCell id="x_83xfT4ExtWYaYdCdeu-2" value="Port 5002" style="text;html=1;align=center;verticalAlign=middle;whiteSpace=wrap;rounded=0;" vertex="1" parent="1">
          <mxGeometry x="220" y="395" width="60" height="30" as="geometry" />
        </mxCell>
        <mxCell id="x_83xfT4ExtWYaYdCdeu-3" value="Port 5001" style="text;html=1;align=center;verticalAlign=middle;whiteSpace=wrap;rounded=0;" vertex="1" parent="1">
          <mxGeometry x="30" y="395" width="60" height="30" as="geometry" />
        </mxCell>
        <mxCell id="x_83xfT4ExtWYaYdCdeu-4" value="" style="endArrow=none;html=1;rounded=0;entryX=-0.023;entryY=0.639;entryDx=0;entryDy=0;entryPerimeter=0;exitX=0.161;exitY=-0.022;exitDx=0;exitDy=0;exitPerimeter=0;" edge="1" parent="1" source="v6AuKC3yWM7Gicxnks6a-1" target="sDMSiTrskQ5_PpkyUzul-7">
          <mxGeometry width="50" height="50" relative="1" as="geometry">
            <mxPoint x="40" y="630" as="sourcePoint" />
            <mxPoint x="100" y="410" as="targetPoint" />
            <Array as="points">
              <mxPoint x="40" y="420" />
              <mxPoint x="60" y="420" />
            </Array>
          </mxGeometry>
        </mxCell>
        <mxCell id="x_83xfT4ExtWYaYdCdeu-6" value="" style="endArrow=classic;html=1;rounded=0;" edge="1" parent="1">
          <mxGeometry width="50" height="50" relative="1" as="geometry">
            <mxPoint x="340" y="240" as="sourcePoint" />
            <mxPoint x="70" y="390" as="targetPoint" />
          </mxGeometry>
        </mxCell>
        <mxCell id="x_83xfT4ExtWYaYdCdeu-7" value="" style="endArrow=classic;html=1;rounded=0;entryX=0.425;entryY=-0.083;entryDx=0;entryDy=0;entryPerimeter=0;" edge="1" parent="1" target="x_83xfT4ExtWYaYdCdeu-2">
          <mxGeometry width="50" height="50" relative="1" as="geometry">
            <mxPoint x="350" y="240" as="sourcePoint" />
            <mxPoint x="260" y="300" as="targetPoint" />
          </mxGeometry>
        </mxCell>
        <mxCell id="x_83xfT4ExtWYaYdCdeu-8" value="utile pour débugger sans passer par Nginx, permet de tester les flask 1 par 1" style="text;html=1;align=center;verticalAlign=middle;whiteSpace=wrap;rounded=0;" vertex="1" parent="1">
          <mxGeometry x="320" y="200" width="140" height="30" as="geometry" />
        </mxCell>
      </root>
    </mxGraphModel>
  </diagram>
</mxfile>
